:FULLY-SPECIFIED
:FORCE-ALL-JOINTS-BE-3DOF
:DEGREES
204
root -2.89834 16.3096 -36.1129 3.77647 0.669295 -2.9228
lfemur -23.8811 6.71227 -8.18107
ltibia 48.6095 -0 0
lfoot -23.7771 0.393452 5.16403e-05
ltoes -9.78691 0 0
rfemur -23.8243 -7.53838 14.6542
rtibia 50.6846 -0 0
rfoot -27.6084 2.04886 -2.98544e-05
rtoes -8.28712 0 0
lowerback 7.28291 1.95425 -1.69481
upperback -3.75366 2.53938 1.30097
thorax -8.18527 1.37379 1.96455
lowerneck -3.37536 -3.96937 -6.59729
upperneck 6.84945 -5.36103 6.08219
head 3.23176 -2.63991 2.98452
lclavicle -1.30647e-14 4.96962e-16 0
lhumerus -26.5522 -1.87444 88.7842
lradius 24.3091 -0 0
lwrist -31.3953 0 0
lhand -28.2318 30.1015 5.49872e-06
lfingers 7.12502 -0 0
lthumb -1.60979 60.0752 5.31906e-06
rclavicle -1.30647e-14 4.96962e-16 0
rhumerus -32.2357 1.99762 -79.937
rradius 30.4457 -0 0
rwrist 3.12205 0 0
rhand -20.0927 -26.8276 -2.94829e-05
rfingers 7.12502 -0 0
rthumb 6.25033 -56.7154 -2.9131e-05
205
root -2.89986 16.3073 -36.1118 3.77268 0.669391 -2.92395
lfemur -23.8935 6.72088 -8.17517
ltibia 48.6475 -0 0
lfoot -23.7971 0.395351 2.57939e-05
ltoes -9.80252 0 0
rfemur -23.8369 -7.55438 14.6565
rtibia 50.7228 -0 0
rfoot -27.6299 2.05822 -1.32047e-05
rtoes -8.29141 0 0
lowerback 7.28687 1.95399 -1.69521
upperback -3.75072 2.53901 1.30229
thorax -8.18527 1.37379 1.96455
lowerneck -3.4045 -3.94606 -6.5701
upperneck 6.87653 -5.32865 6.05503
head 3.24299 -2.62359 2.97195
lclavicle -1.30647e-14 4.96962e-16 0
lhumerus -26.55 -1.88288 88.7894
lradius 24.3137 -0 0
lwrist -31.3847 0 0
lhand -28.2306 30.1082 2.42487e-06
lfingers 7.12502 -0 0
lthumb -1.60871 60.0819 2.34671e-06
rclavicle -1.30647e-14 4.96962e-16 0
rhumerus -32.2274 2.00135 -79.9388
rradius 30.4514 -0 0
rwrist 3.1223 0 0
rhand -20.0877 -26.8249 -1.55703e-05
rfingers 7.12502 -0 0
rthumb 6.25509 -56.7126 -1.5374e-05
206
root -2.90138 16.305 -36.1106 3.76868 0.66911 -2.9246
lfemur -23.9054 6.72898 -8.17025
ltibia 48.6848 0 0
lfoot -23.8168 0.397708 0
ltoes -9.81773 0 0
rfemur -23.8493 -7.56976 14.6577
rtibia 50.7605 0 0
rfoot -27.6509 2.06737 0
rtoes -8.29546 0 0
lowerback 7.29131 1.95374 -1.69565
upperback -3.74773 2.53866 1.30361
thorax -8.18527 1.37379 1.96455
lowerneck -3.43602 -3.91994 -6.54011
upperneck 6.9053 -5.29236 6.02499
head 3.25484 -2.60532 2.95808
lclavicle -1.30647e-14 4.96962e-16 0
lhumerus -26.5489 -1.89002 88.794
lradius 24.3179 0 0
lwrist -31.374 0 0
lhand -28.2296 30.1145 0
lfingers 7.12502 0 0
lthumb -1.6077 60.0882 0
rclavicle -1.30647e-14 4.96962e-16 0
rhumerus -32.2196 2.00376 -79.9386
rradius 30.4557 0 0
rwrist 3.12415 0 0
rhand -20.0827 -26.8213 0
rfingers 7.12502 0 0
rthumb 6.25995 -56.7088 0
207
root -2.90104 16.303 -36.1104 3.76256 0.660377 -2.9237
lfemur -23.9135 6.72885 -8.16504
ltibia 48.7141 -0 0
lfoot -23.8361 0.392338 9.6558e-05
ltoes -9.83998 0 0
rfemur -23.8594 -7.58085 14.6574
rtibia 50.7959 -0 0
rfoot -27.6731 2.08254 0.000231039
rtoes -8.29258 0 0
lowerback 7.29484 1.95342 -1.69817
upperback -3.74455 2.53794 1.30446
thorax -8.1575 1.36949 2.00848
lowerneck -3.47044 -3.89362 -6.50916
upperneck 6.93682 -5.25584 5.99488
head 3.26765 -2.58683 2.9439
lclavicle 8.24413e-15 1.54058e-15 0
lhumerus -26.5509 -1.89027 88.8032
lradius 24.2964 -0 0
lwrist -31.38 0 0
lhand -28.2555 30.1067 -0.00814472
lfingers 7.12502 -0 0
lthumb -1.63271 60.081 -0.00782117
rclavicle 8.24413e-15 1.54058e-15 0
rhumerus -32.2088 1.99281 -79.9337
rradius 30.4378 -0 0
rwrist 3.14194 0 0
rhand -20.0956 -26.8187 -0.00122056
rfingers 7.12502 -0 0
rthumb 6.24856 -56.7121 -0.00453204
208
root -2.9007 16.3011 -36.1102 3.7526 0.635943 -2.92032
lfemur -23.915 6.71354 -8.15837
ltibia 48.7288 -0 0
lfoot -23.855 0.371847 0.000420267
ltoes -9.87597 0 0
rfemur -23.8654 -7.58436 14.655
rtibia 50.8274 -0 0
rfoot -27.6981 2.10937 0.00088523
rtoes -8.27673 0 0
lowerback 7.29619 1.95295 -1.70461
upperback -3.74106 2.53649 1.30442
thorax -8.1761 1.37154 1.98967
lowerneck -3.5081 -3.86961 -6.47903
upperneck 6.97196 -5.2226 5.96737
head 3.28169 -2.56978 2.93035
lclavicle 8.24413e-15 1.54058e-15 0
lhumerus -26.5581 -1.87873 88.8217
lradius 24.2267 -0 0
lwrist -31.4179 0 0
lhand -28.2385 30.1013 -0.0022129
lfingers 7.12502 -0 0
lthumb -1.61627 60.0751 -0.00212499
rclavicle 8.24413e-15 1.54058e-15 0
rhumerus -32.1919 1.95775 -79.9218
rradius 30.3793 -0 0
rwrist 3.18759 0 0
rhand -20.1428 -26.8188 -0.00479114
rfingers 7.12502 -0 0
rthumb 6.20622 -56.7296 -0.0177141
209
root -2.90037 16.2991 -36.1099 3.73908 0.597035 -2.91464
lfemur -23.9103 6.68425 -8.15037
ltibia 48.7301 -0 0
lfoot -23.8735 0.337445 0.000945937
ltoes -9.92463 0 0
rfemur -23.8676 -7.58088 14.6508
rtibia 50.8553 -0 0
rfoot -27.7256 2.14693 0.00193862
rtoes -8.24893 0 0
lowerback 7.29554 1.95233 -1.71468
upperback -3.73727 2.53438 1.30354
thorax -8.17242 1.37113 1.99342
lowerneck -3.54885 -3.84759 -6.44955
upperneck 7.01053 -5.1922 5.94214
head 3.29689 -2.55396 2.91733
lclavicle 8.24413e-15 1.54058e-15 0
lhumerus -26.5699 -1.85633 88.8487
lradius 24.1126 -0 0
lwrist -31.4851 0 0
lhand -28.2505 30.077 -0.00485306
lfingers 7.12502 -0 0
lthumb -1.62784 60.051 -0.00466023
rclavicle 8.24413e-15 1.54058e-15 0
rhumerus -32.1694 1.90045 -79.9034
rradius 30.2832 -0 0
rwrist 3.25893 0 0
rhand -20.2214 -26.8215 -0.0105294
rfingers 7.12502 -0 0
rthumb 6.1354 -56.7603 -0.0388917
